<?xml version="1.0" encoding="UTF-8"?>
<svg id="Layer_1" xmlns="http://www.w3.org/2000/svg" version="1.1" viewBox="0 0 1334.2 312.7">
  <!-- Generator: Adobe Illustrator 30.0.0, SVG Export Plug-In . SVG Version: 2.1.1 Build 123)  -->
  <defs>
    <style>
      .st0 {
        fill: #fff;
      }
    </style>
  </defs>
  <g>
    <path class="st0" d="M628.8,74.5c49.2,0,63.6,15.1,63.6,57.2v17.8c0,41.9-14.4,57-63.6,57h-73.6v39.5h-36.3v-114.2c0-42.1,14.4-57.2,63.6-57.2h46.3ZM656.1,132.7c0-23.1-6.3-27.3-31.9-27.3h-40.4c-22.9,0-28.5,5.4-28.5,27v43.1h69.2c25.3,0,31.7-3.4,31.7-27.3v-15.6Z"/>
    <path class="st0" d="M762.6,206.5c-38,0-48.2-13.4-48.2-34.8v-12.4c0-22.2,9.3-34.8,45.8-34.8h97.7v-2.9c0-16.8-6.3-21.2-22.4-21.2h-103.4v-25.8h103.4c42.1,0,58.7,15.1,58.7,48.7v32.2c0,38.2-13.4,51.2-60.2,51.2h-71.4ZM857.9,146.9h-93.8c-8.5,0-13.6,2.9-13.6,13.4v9c0,9.3,5.6,12.4,14.9,12.4h68.2c17,0,24.4-3.9,24.4-23.6v-11.2Z"/>
    <path class="st0" d="M920.5,206.5v-76.5c0-39.5,17.3-55.5,61.9-55.5h23.6v29.5h-22.7c-20.2,0-26.6,5.4-26.6,26.3v76.2h-36.3Z"/>
    <path class="st0" d="M1027.7,206.5v-76.5c0-39.5,17.3-55.5,61.9-55.5h23.6v29.5h-22.7c-20.2,0-26.6,5.4-26.6,26.3v76.2h-36.3Z"/>
    <path class="st0" d="M1170.5,143.2c0,14.6,5.8,19.5,20.7,19.5h81.1v-88.2h35.3v129.6c0,29.5-13.9,41.9-46.8,41.9h-102.1v-29.7h98.9c10,0,14.6-3.2,14.6-14.1v-10.7h-83.3c-39.5,0-54.3-14.9-54.3-46.8v-70.2h35.8v68.7Z"/>
  </g>
  <path class="st0" d="M25.9,39.3S698.3-10.8,385.4,206.5c0,0,85.9-144.9-359.5-167.3Z"/>
  <path class="st0" d="M200.1,102.5c.6.2,121.4,41.2,83.5,154.2-2,7.9-4.8,12.6-4.8,12.6,163-113.2,58.7-153.8-78.7-166.8Z"/>
  <path class="st0" d="M200.1,185.9c.3.2,51.5,33.7,23.3,98.5-1.7,4.6-3.4,7.2-3.4,7.2,85.6-55.7,41.8-87.7-19.9-105.7Z"/>
</svg>